# xmcd
#
# Track frame offsets:
#	150
#	11146
#	22814
#	35478
#	47840
#	57894
#	68130
#	78661
#	91033
#	102951
#	112825
#	124226
#	132413
#	139986
#	150905
#	162912
#	172273
#	181029
#	191992
#	203203
#
# Disc length: 2838 seconds
#
# Revision: 11
# Processed by: cddbd v1.5.2PL0 Copyright (c) Steve Scherf et al.
# Submitted via: VUPlayer 2.49
#
DISCID=0f0b1414
DTITLE=Johnny Cash - Here's Johnny Cash
DYEAR=2012
DGENRE=Country
TTITLE0=Cry Cry Cry
TTITLE1=So Doggone Lonesome
TTITLE2=Folsom Prison Blues
TTITLE3=I Walk the Line
TTITLE4=Get Rhythm
TTITLE5=There You Go
TTITLE6=Train of Love
TTITLE7=Next in Line
TTITLE8=Home of the Blues
TTITLE9=Ballad of A Teenage Queen
TTITLE10=Big River
TTITLE11=Guess Things Happen That Way
TTITLE12=Come in Stranger
TTITLE13=The Ways of A Woman in Love
TTITLE14=You're the Nearest Thing To Heaven
TTITLE15=Luther Played the Boogie
TTITLE16=Katy Too
TTITLE17=I Love You Because
TTITLE18=Oh, Lonesome Me
TTITLE19=Rock island Line
EXTD=
EXTT0=
EXTT1=
EXTT2=
EXTT3=
EXTT4=
EXTT5=
EXTT6=
EXTT7=
EXTT8=
EXTT9=
EXTT10=
EXTT11=
EXTT12=
EXTT13=
EXTT14=
EXTT15=
EXTT16=
EXTT17=
EXTT18=
EXTT19=
PLAYORDER=
